<?xml version="1.0" standalone="no"?>
<!DOCTYPE svg PUBLIC "-//W3C//DTD SVG 20010904//EN"
 "http://www.w3.org/TR/2001/REC-SVG-20010904/DTD/svg10.dtd">
<svg version="1.0" xmlns="http://www.w3.org/2000/svg"
 width="487.000000pt" height="487.000000pt" viewBox="0 0 487.000000 487.000000"
 preserveAspectRatio="xMidYMid meet">
<metadata>
Created by potrace 1.11, written by Peter Selinger 2001-2013
</metadata>
<g transform="translate(0.000000,487.000000) scale(0.100000,-0.100000)"
fill="#000000" stroke="none">
<path d="M2362 4154 c0 -393 -2 -717 -5 -720 -2 -2 -22 -5 -43 -5 -38 -1 -85
-22 -83 -37 1 -4 1 -22 0 -39 -1 -32 -2 -33 -43 -33 -69 0 -70 -3 -72 -141
l-1 -123 -60 -36 c-112 -66 -228 -198 -282 -318 -66 -149 -85 -366 -42 -479 7
-20 5 -25 -14 -33 -39 -16 -454 -120 -478 -120 -156 0 -250 -172 -164 -301 13
-21 27 -59 31 -86 3 -26 8 -57 10 -68 2 -10 6 -37 9 -60 3 -22 12 -80 20 -130
7 -49 16 -115 20 -145 3 -30 8 -62 10 -70 4 -13 10 -56 20 -130 2 -14 16 -106
30 -205 14 -99 28 -193 30 -210 3 -16 9 -57 14 -89 7 -49 5 -66 -11 -102 -12
-28 -16 -54 -13 -76 7 -41 43 -95 70 -104 11 -4 29 -10 40 -14 11 -3 32 -3 47
1 15 4 36 2 50 -5 72 -38 224 -120 233 -126 6 -4 51 -29 100 -55 50 -26 109
-59 133 -73 35 -20 48 -23 66 -14 15 7 23 18 22 33 -1 19 -42 51 -206 161
-113 75 -210 142 -217 147 -7 6 -16 11 -21 11 -16 0 -42 36 -42 59 0 42 -28
90 -68 114 -34 22 -39 30 -41 69 -1 23 -3 57 -5 73 -2 17 -7 66 -11 110 -4 44
-8 91 -10 105 -2 14 -7 61 -10 105 -3 44 -8 96 -10 115 -3 19 -7 64 -10 100
-3 36 -8 79 -10 95 -2 17 -6 68 -10 115 -4 47 -8 96 -10 110 -2 14 -7 59 -10
100 -7 74 -6 76 19 88 41 18 80 88 86 151 l5 56 80 17 c44 9 96 19 115 22 19
3 73 13 119 22 l84 17 20 -29 c36 -52 162 -168 219 -202 49 -29 157 -73 222
-89 48 -12 244 -11 303 1 169 36 332 140 437 279 31 41 26 40 116 22 14 -3 61
-12 105 -20 44 -8 107 -20 140 -27 l60 -13 5 -55 c6 -65 34 -118 78 -145 l32
-20 -6 -70 c-3 -38 -7 -86 -9 -105 -2 -19 -6 -69 -10 -110 -4 -41 -8 -88 -9
-105 -2 -16 -6 -66 -10 -110 -4 -44 -9 -96 -11 -115 -2 -19 -6 -62 -10 -95 -3
-33 -7 -80 -10 -105 -3 -25 -7 -70 -9 -100 -3 -30 -8 -86 -12 -125 -4 -38 -7
-78 -6 -87 0 -9 -15 -27 -34 -39 -45 -27 -67 -61 -74 -113 -5 -41 -5 -41 -245
-201 -251 -169 -275 -192 -222 -216 21 -10 39 -3 143 54 66 35 144 78 174 94
30 17 75 42 100 55 112 63 125 68 177 68 57 0 98 19 127 58 25 33 27 117 3
152 -9 14 -15 37 -12 50 4 22 7 43 21 140 3 19 7 46 9 60 3 20 37 253 59 405
33 222 55 370 61 405 2 14 7 45 10 70 13 99 18 114 41 149 47 71 41 167 -13
232 -34 40 -65 54 -150 69 -40 6 -97 18 -125 26 -29 8 -123 33 -208 55 -84 22
-155 41 -157 43 -1 1 4 32 11 69 62 295 -86 616 -356 771 l-46 27 -1 115 c0
74 -4 121 -12 130 -7 8 -30 14 -55 14 -24 0 -44 3 -45 8 -1 4 -2 21 -3 38 -2
43 -21 62 -55 60 -16 -1 -37 1 -47 5 -18 6 -19 34 -20 710 -1 387 -2 710 -3
717 -1 8 -23 12 -75 12 l-74 0 0 -716z"/>
</g>
</svg>
